<svg xmlns="http://www.w3.org/2000/svg" width="262.17" height="154.12" viewBox="0 0 262.17 154.12">
  <g id="Group_318" data-name="Group 318" transform="translate(-785.884 -333)">
    <g id="Group_317" data-name="Group 317">
      <path id="Path_788" data-name="Path 788" d="M1250.935,13761.016v48.583l-24.657,23.192v-117.672H1240l83.2,87.155v30.517Z" transform="translate(-365.831 -13382)" fill="#fff"/>
      <path id="Path_789" data-name="Path 789" d="M1299.761,13715v39.668l22.948,24.17v-48.375Z" transform="translate(-365.831 -13382)" fill="#fff"/>
    </g>
    <path id="Path_792" data-name="Path 792" d="M1.215,0V-9.93H2.52L8.655-1.575V-9.93H9.78V0h-1.3L2.34-8.385V0ZM20.37,0l4.215-9.93H26L30.21,0H28.965L27.75-2.88H22.83L21.615,0Zm2.9-3.915h4.05L25.29-8.76ZM40.8,0V-9.93h4.755a3.447,3.447,0,0,1,2.438.84A2.936,2.936,0,0,1,48.9-6.825a2.794,2.794,0,0,1-.368,1.53,2.451,2.451,0,0,1-.923.862,4.829,4.829,0,0,1-1.11.428L49.11,0H47.775l-2.4-3.81h-3.45V0Zm1.125-4.875H45.36a3.829,3.829,0,0,0,1.095-.165,2,2,0,0,0,.938-.592,1.726,1.726,0,0,0,.383-1.193,1.855,1.855,0,0,0-.645-1.493,2.553,2.553,0,0,0-1.71-.547H41.925Zm22.41,5A4.7,4.7,0,0,1,61.77-.562,4.526,4.526,0,0,1,60.112-2.4a5.655,5.655,0,0,1-.577-2.565,5.655,5.655,0,0,1,.577-2.565A4.526,4.526,0,0,1,61.77-9.368a4.7,4.7,0,0,1,2.565-.682,4.961,4.961,0,0,1,2.025.4,4.511,4.511,0,0,1,1.53,1.087,4.546,4.546,0,0,1,.945,1.605H67.65a3.138,3.138,0,0,0-1.185-1.455,3.6,3.6,0,0,0-2.04-.54,3.772,3.772,0,0,0-2.047.532A3.415,3.415,0,0,0,61.095-6.99a4.594,4.594,0,0,0-.435,2.025,4.607,4.607,0,0,0,.435,2.018,3.4,3.4,0,0,0,1.283,1.44,3.772,3.772,0,0,0,2.047.532,3.6,3.6,0,0,0,2.04-.54A3.138,3.138,0,0,0,67.65-2.97h1.185a4.65,4.65,0,0,1-.945,1.6,4.462,4.462,0,0,1-1.53,1.1A4.961,4.961,0,0,1,64.335.12ZM79.845,0V-9.93H80.97V0Zm16.44.12a6.049,6.049,0,0,1-2.385-.4,3,3,0,0,1-1.373-1.1A3.4,3.4,0,0,1,92-2.97h1.17a1.751,1.751,0,0,0,.48,1.163,2.6,2.6,0,0,0,1.147.653,5.529,5.529,0,0,0,1.568.21,3.856,3.856,0,0,0,2-.443A1.437,1.437,0,0,0,99.09-2.7a1.073,1.073,0,0,0-.368-.848,2.9,2.9,0,0,0-.975-.533q-.607-.21-1.327-.382T94.972-4.83a7.244,7.244,0,0,1-1.335-.495,2.755,2.755,0,0,1-.975-.773,1.909,1.909,0,0,1-.368-1.207,2.438,2.438,0,0,1,.938-1.98,4.352,4.352,0,0,1,2.8-.765,5.171,5.171,0,0,1,2.175.4A3.008,3.008,0,0,1,99.488-8.61a2.789,2.789,0,0,1,.472,1.395H98.805a1.856,1.856,0,0,0-.75-1.267A3.262,3.262,0,0,0,96.03-9a4.661,4.661,0,0,0-1.365.165,2.05,2.05,0,0,0-.8.428,1.381,1.381,0,0,0-.375.547,1.67,1.67,0,0,0-.1.54,1,1,0,0,0,.368.8,2.973,2.973,0,0,0,.975.51,13.857,13.857,0,0,0,1.342.368q.735.165,1.463.368a7.26,7.26,0,0,1,1.335.51,2.789,2.789,0,0,1,.975.788,1.966,1.966,0,0,1,.367,1.23,2.443,2.443,0,0,1-1.05,2.123A4.912,4.912,0,0,1,96.285.12Zm19.41,0a5.263,5.263,0,0,1-2.055-.39,4.645,4.645,0,0,1-1.6-1.1,4.971,4.971,0,0,1-1.028-1.627,5.377,5.377,0,0,1-.36-1.973,5.36,5.36,0,0,1,.36-1.98,4.991,4.991,0,0,1,1.028-1.62,4.645,4.645,0,0,1,1.6-1.1,5.263,5.263,0,0,1,2.055-.39,5.263,5.263,0,0,1,2.055.39,4.645,4.645,0,0,1,1.6,1.1,4.991,4.991,0,0,1,1.027,1.62,5.36,5.36,0,0,1,.36,1.98,5.377,5.377,0,0,1-.36,1.973,4.971,4.971,0,0,1-1.027,1.627,4.645,4.645,0,0,1-1.6,1.1A5.263,5.263,0,0,1,115.695.12Zm0-1.1a3.957,3.957,0,0,0,2.092-.532,3.6,3.6,0,0,0,1.35-1.44,4.3,4.3,0,0,0,.473-2.018,4.29,4.29,0,0,0-.473-2.025,3.611,3.611,0,0,0-1.35-1.433,3.957,3.957,0,0,0-2.092-.532,3.967,3.967,0,0,0-2.085.532,3.6,3.6,0,0,0-1.357,1.433,4.29,4.29,0,0,0-.473,2.025,4.3,4.3,0,0,0,.473,2.018,3.583,3.583,0,0,0,1.357,1.44A3.967,3.967,0,0,0,115.695-.975ZM148.56.12a4.7,4.7,0,0,1-2.565-.683A4.526,4.526,0,0,1,144.337-2.4a5.655,5.655,0,0,1-.577-2.565,5.655,5.655,0,0,1,.577-2.565,4.526,4.526,0,0,1,1.658-1.837,4.7,4.7,0,0,1,2.565-.682,4.961,4.961,0,0,1,2.025.4,4.511,4.511,0,0,1,1.53,1.087,4.546,4.546,0,0,1,.945,1.605h-1.185a3.139,3.139,0,0,0-1.185-1.455,3.6,3.6,0,0,0-2.04-.54,3.772,3.772,0,0,0-2.048.532A3.415,3.415,0,0,0,145.32-6.99a4.594,4.594,0,0,0-.435,2.025,4.607,4.607,0,0,0,.435,2.018,3.4,3.4,0,0,0,1.283,1.44,3.772,3.772,0,0,0,2.048.532,3.6,3.6,0,0,0,2.04-.54,3.138,3.138,0,0,0,1.185-1.455h1.185a4.65,4.65,0,0,1-.945,1.6,4.462,4.462,0,0,1-1.53,1.1A4.961,4.961,0,0,1,148.56.12Zm19.92,0a5.263,5.263,0,0,1-2.055-.39,4.645,4.645,0,0,1-1.6-1.1A4.971,4.971,0,0,1,163.8-2.993a5.377,5.377,0,0,1-.36-1.973,5.36,5.36,0,0,1,.36-1.98,4.991,4.991,0,0,1,1.027-1.62,4.645,4.645,0,0,1,1.6-1.1,5.263,5.263,0,0,1,2.055-.39,5.263,5.263,0,0,1,2.055.39,4.645,4.645,0,0,1,1.6,1.1,4.991,4.991,0,0,1,1.027,1.62,5.36,5.36,0,0,1,.36,1.98,5.377,5.377,0,0,1-.36,1.973,4.971,4.971,0,0,1-1.027,1.627,4.645,4.645,0,0,1-1.6,1.1A5.263,5.263,0,0,1,168.48.12Zm0-1.1a3.957,3.957,0,0,0,2.092-.532,3.6,3.6,0,0,0,1.35-1.44,4.3,4.3,0,0,0,.473-2.018,4.29,4.29,0,0,0-.473-2.025,3.611,3.611,0,0,0-1.35-1.433,3.957,3.957,0,0,0-2.092-.532,3.967,3.967,0,0,0-2.085.532,3.6,3.6,0,0,0-1.357,1.433,4.29,4.29,0,0,0-.472,2.025,4.3,4.3,0,0,0,.472,2.018,3.583,3.583,0,0,0,1.357,1.44A3.967,3.967,0,0,0,168.48-.975ZM184.65,0V-9.93H189.4a3.447,3.447,0,0,1,2.438.84,2.936,2.936,0,0,1,.908,2.265,2.794,2.794,0,0,1-.368,1.53,2.451,2.451,0,0,1-.923.862,4.829,4.829,0,0,1-1.11.428L192.96,0h-1.335l-2.4-3.81h-3.45V0Zm1.125-4.875h3.435a3.829,3.829,0,0,0,1.1-.165,2,2,0,0,0,.938-.592,1.726,1.726,0,0,0,.383-1.193,1.855,1.855,0,0,0-.645-1.493,2.553,2.553,0,0,0-1.71-.547h-3.5ZM204.015,0V-9.93h4.755a3.447,3.447,0,0,1,2.438.84,2.936,2.936,0,0,1,.908,2.265,2.794,2.794,0,0,1-.368,1.53,2.451,2.451,0,0,1-.923.862,4.829,4.829,0,0,1-1.11.428L212.325,0H210.99l-2.4-3.81h-3.45V0Zm1.125-4.875h3.435a3.829,3.829,0,0,0,1.1-.165,2,2,0,0,0,.938-.592,1.726,1.726,0,0,0,.383-1.193,1.855,1.855,0,0,0-.645-1.493,2.553,2.553,0,0,0-1.71-.547h-3.5ZM223.38,0V-9.93h7.305v1.08H224.5v3.33h5.52v1.1H224.5V-1.08h6.18V0Zm18.45,0V-9.93h1.125V0Zm11.715,0,4.215-9.93h1.41L263.385,0H262.14l-1.215-2.88H256L254.79,0Zm2.895-3.915h4.05L258.465-8.76Z" transform="translate(784.669 487)" fill="#fff"/>
  </g>
</svg>
